<svg xmlns="http://www.w3.org/2000/svg" width="512" height="512" xmlns:v="https://vecta.io/nano"><path d="M65.371 306.852l2.014-.012 6.746-.021 4.859-.022 13.405-.045 11.485-.041 108.879-.259 14.177-.021 3.559-.005 57.072-.173 58.573-.139 32.895-.095 28.018-.059 14.294-.045 13.095-.01 4.728-.034c7.79-.128 13.577.113 19.659 5.528 1.421 1.505 2.815 3.036 4.168 4.602l2.839 2.719 2.256 2.262 2.618 2.618 2.713 2.728 2.881 2.885 7.485 7.51 7.616 7.636 13.508 13.556 5.152 5.066c2.098 2.193 2.616 3.086 2.556 6.081C512 373 512 373 509.875 375.5c-3.363 1.755-5.125 1.874-8.875 1.5-2.171-1.369-2.171-1.369-4.305-3.434l-2.604-2.492L491 368l-3.896-3.836-13.229-13.226-4.633-4.646L458 335l-.004 2.523-.179 60.82-.087 29.412-.084 25.64-.037 13.572-.049 12.784-.005 4.682c.046 14.724.046 14.724-4.554 21.566-4.885 4.641-8.636 6.249-15.345 6.257l-3.98.02-4.384-.009-4.648.014-12.793.01c-4.597 0-9.193.011-13.79.02l-27.025.023-21.963.011-62.243.025h-3.391-3.395c-18.16-.001-36.319.018-54.478.047l-55.912.041c-10.467-.001-20.934.005-31.401.026l-26.735.009c-4.548-.007-9.095-.007-13.643.011a1567.59 1567.59 0 0 1-12.489-.005c-1.506-.003-3.012.001-4.518.012-13.999.097-13.999.097-19.866-4.511-5.149-5.427-6.313-10.422-6.336-17.75l-.02-2.229-.014-4.649-.079-7.09-.012-4.531-.044-2.128c.033-3.524.466-5.557 2.283-8.606C59 459 59 459 63 459v-20l-5-1c-2.158-1.772-2.886-3.185-3.273-5.947-.139-2.536-.163-5.055-.159-7.595l-.031-2.928-.048-9.577-.054-6.642-.103-17.479-.121-17.837L54 335l-1.498 1.505-13.992 14.037-7.193 7.217-8.273 8.295-2.604 2.62-2.426 2.426-2.133 2.14c-2.811 2.631-4.44 3.711-8.317 4.134C4 377 4 377 1.562 375.5c-1.762-2.82-2.08-5.096-2.191-8.402C.33 363.9 2.62 362.303 5 360l5.309-5.325 15.338-15.374 9.26-9.284 8.984-9.004 3.42-3.431 4.768-4.775 2.74-2.747c3.565-3.369 5.723-3.191 10.552-3.209z" fill="#e2936a"/><path d="M65.371 306.852l2.014-.012 6.746-.021 4.859-.022 13.405-.045 11.485-.041 108.879-.259 14.177-.021 3.559-.005 57.072-.173 58.573-.139 32.895-.095 28.018-.059 14.294-.045 13.095-.01 4.728-.034c7.79-.128 13.577.113 19.659 5.528 1.421 1.505 2.815 3.036 4.168 4.602l2.839 2.719 2.256 2.262 2.618 2.618 2.713 2.728 2.881 2.885 7.485 7.51 7.616 7.636 13.508 13.556 5.152 5.066c2.098 2.193 2.616 3.086 2.556 6.081C512 373 512 373 509.875 375.5c-3.363 1.755-5.125 1.874-8.875 1.5-2.171-1.369-2.171-1.369-4.305-3.434l-2.604-2.492L491 368l-3.896-3.836-13.229-13.226-4.633-4.646L458 335l-.004 2.523-.179 60.82-.087 29.412-.084 25.64-.037 13.572-.049 12.784-.005 4.682c.046 14.724.046 14.724-4.554 21.566-4.885 4.641-8.636 6.249-15.345 6.257l-3.98.02-4.384-.009-4.648.014-12.793.01c-4.597 0-9.193.011-13.79.02l-27.025.023-21.963.011-62.243.025h-3.391-3.395c-18.16-.001-36.319.018-54.478.047l-55.912.041c-10.467-.001-20.934.005-31.401.026l-26.735.009c-4.548-.007-9.095-.007-13.643.011a1567.59 1567.59 0 0 1-12.489-.005c-1.506-.003-3.012.001-4.518.012-13.999.097-13.999.097-19.866-4.511-5.149-5.427-6.313-10.422-6.336-17.75l-.02-2.229-.014-4.649-.079-7.09-.012-4.531-.044-2.128c.033-3.537.449-5.531 2.318-8.567C59 459 59 459 62.437 458.375 66 459 66 459 71 464l1 32h368V363l-8 8c-2.652 1.805-2.652 1.805-4.937 2.875l-2.277 1.117c-8.204 2.969-16.069 3.298-24.739 3.275l-3.893.014-10.638.01c-3.832 0-7.665.011-11.497.02l-22.503.023-18.3.011-51.937.025h-2.825-2.829c-15.126-.001-30.251.018-45.377.047l-46.645.041c-8.722-.001-17.444.005-26.166.026l-22.28.009a1795.41 1795.41 0 0 0-11.355.011c-4.114.019-8.227.006-12.34-.009l-3.581.031C92.592 378.4 82.56 373.593 72 363l-.011 2.624-.173 24.498-.087 12.594-.097 12.157-.024 4.635-.062 6.499-.027 3.735c-.613 3.849-1.813 5.508-4.519 8.259-2.875 1.437-4.819 1.382-8 1-3.217-2.858-4.255-5.178-4.519-9.36l-.027-5.296-.031-2.928-.032-9.561-.05-6.637-.079-17.454-.102-17.817L54 335l-1.498 1.505-13.992 14.037-7.193 7.217-8.273 8.295-2.604 2.62-2.426 2.426-2.133 2.14c-2.811 2.631-4.44 3.711-8.317 4.134C4 377 4 377 1.562 375.5c-1.762-2.82-2.08-5.096-2.191-8.402C.33 363.9 2.62 362.303 5 360l5.309-5.325 15.338-15.374 9.26-9.284 8.984-9.004 3.42-3.431 4.768-4.775 2.74-2.747c3.565-3.369 5.723-3.191 10.552-3.209z" fill="#030101"/><path d="M311 18l3.063 2.25c2.222 3.154 2.066 3.871 1.813 7.563-.186 3.201-.183 4.705 1.559 7.438l3.84 3.992C323 41 323 41 324.438 43.938L326 46c3.611.553 3.611.553 5.965.469 3.247.848 4.229 2.78 6.035 5.531 9.758 23.1 9.42 48.142.559 71.465-8.788 19.933-23.352 35.033-42.746 44.973l-1.942 1.001c-4.819 2.348-9.609 3.591-14.87 4.561l.079 2.687.195 10.008.103 4.306c.261 8.816.183 16.631-5.377 23.999-6.824 6.339-12.238 7.374-21.48 7.27-5.736-.439-9.34-1.929-13.262-6.141-5.375-6.802-6.573-12.296-6.594-20.82l-.02-2.852-.014-5.974-.079-9.032c-.078-13.172.426-24.979 9.441-35.428 7.132-7.188 14.507-10.028 24.029-12.827 12.018-3.588 20.947-9.611 27.291-20.571 5.546-10.854 6.299-22.252 2.723-33.93-4.53-11.796-12.378-20.234-23.832-25.5-10.791-4.027-21.786-4.19-32.512.141C228.312 54.824 220.794 62.248 216 74c-1.238 3.92-1.943 7.43-2.352 11.523-.952 9.35-2.301 15.832-9.551 22.129-6.445 4.333-13.59 4.531-21.098 3.348-6.522-2.379-10.766-6.055-14.16-12.07-5.427-12.468-1.375-29.547 3.212-41.882 9.058-22.889 25.434-39.551 47.323-50.36C249.911-6.425 284.623-2.045 311 18z" fill="#000103"/><path d="M73 322h366l-5.812 20.25-.674 2.273c-2.034 6.328-5.194 11.209-10.744 15l-1.957.852-1.98.898c-3.553 1.409-6.283 1.853-10.083 1.858l-3.318.012-3.659-.003-3.876.009-10.674.011-11.503.016-25.166.024-15.712.012-43.495.026h-2.813l-2.82.001-5.656.001-2.834.001-45.456.045-46.661.037-26.201.025-22.314.012c-3.794-.004-7.589-.003-11.383.011-4.116.015-8.231.007-12.347-.004l-3.625.024c-7.805-.046-14.824-.755-20.987-6.079l-1.609-1.324C78.129 346.885 75.969 332.178 73 322z" fill="#da6737"/><path d="M122.238 403.709l2.51-.02 8.21-.025 5.717-.02 11.986-.014 15.333-.062 11.811-.025 5.651-.027 7.919-.002 2.342-.034c5.508.064 8.787 1.285 13.284 4.52 2.11 2.89 2.255 5.346 2.275 8.873l.029 2.923-.003 3.138.013 3.243.002 6.786.046 10.376.002 6.596.028 3.132c-.04 6.291-.724 9.823-4.891 14.685-3.637 3.031-8.175 2.412-12.64 2.427l-2.514.02-8.241.041-2.844.012-14.901.045-15.384.085-11.836.038-5.671.035-7.941.016-2.357.039c-5.205-.05-8.22-1.124-12.171-4.509-2.088-2.976-2.26-5.468-2.291-9.056l-.039-3.044-.007-3.27-.02-3.377-.014-7.068-.079-10.81-.012-6.869-.044-3.264c.045-7.441.045-7.441 2.283-11.334 4.622-3.966 8.491-4.203 14.459-4.197z" fill="#050302"/><path d="M302.664 31.465c3.221 2.117 5.585 2.148 9.336 1.535 4 0 4 0 5.816 1.574 6.905 8.357 6.905 8.357 8.184 11.426-.715 2.144-1.412 3.412-3 5-.389 4.796.6 8.154 2.438 12.563 3.331 8.057 3.772 14.852 3.813 23.5l.063 3.24c.096 19.95-8.187 36.849-21.715 51.193-9.872 9.516-22.118 15.222-35.254 18.68-2.738.764-4.921 1.434-7.033 3.382-1.888 3.518-1.693 6.894-1.646 10.786l-.039 4.965.015 7.801-.038 7.546.04 2.352c-.053 3.885-.3 5.623-2.984 8.517C258 207 258 207 254.875 206.938c-2.971-.969-3.977-1.543-5.875-3.937-.401-1.933-.401-1.933-.436-4.145l-.058-2.52-.01-2.718-.03-2.815-.022-5.906-.118-8.967-.018-5.75-.065-2.681c.074-6.859 2.271-11.331 6.757-16.499 4.174-3.587 8.147-5.145 13.5-6.312 16.493-3.688 28.426-12.676 37.5-26.687 7.778-13.337 9.356-29.038 6.597-44.216-1.037-3.86-2.666-7.3-4.597-10.784l-1.492-2.785c-8.348-14.685-20.751-22.879-36.695-28.027-14.647-3.625-30.045-1.207-43.187 6.063C214.137 46.162 206.257 56.173 201 70l-1.082 2.82c-1.326 4.595-1.265 9.082-1.379 13.84-.633 3.923-1.72 5.582-4.539 8.34-3.5 1.063-3.5 1.063-7 1-2.184-1.52-2.184-1.52-4-4-.44-2.757-.619-4.999-.562-7.75l.029-2.264c.701-19.274 11.018-35.839 24.471-49.048 27.557-24.137 67.273-23.646 95.727-1.473z" fill="#619ff2"/><path d="M440 362h1l.052 52.362.024 24.311.019 21.182.012 11.223.008 12.508.011 3.786-.004 3.421.003 2.992C441 496 441 496 440 497h-22l1-121 10-4c3.117-2.209 3.117-2.209 5.563-4.687l2.504-2.387L440 362z" fill="#e27c46"/><path d="M120 419h74v36h-74v-36z" fill="#eaeced"/><path d="M270 236c2.875 2.5 2.875 2.5 5 5l1.688 1.938c3.607 5.669 3.96 11.526 3.313 18.063-1.405 6.214-4.428 11.488-9.738 15.223-6.727 4.019-13.806 4.997-21.48 3.281-6.088-2.072-10.763-5.492-14.094-11.066-3.079-6.271-3.773-12.833-2.156-19.691 2.398-6.869 6.143-11.077 12.469-14.746 8.488-3.858 17.175-2.788 25 2z" fill="#000102"/><path d="M441 360l2 1v134l-2 1-.443-52.754-.205-24.493-.177-21.34-.095-11.306-.101-12.601-.039-3.814-.021-3.446-.025-3.014C440 361 440 361 441 360z" fill="#401e0f"/><path d="M440 362h1l.052 52.362.024 24.311.019 21.182.012 11.223.008 12.508.011 3.786-.004 3.421.003 2.992C441 496 441 496 440 497l-4.91.098-2.998-.01-3.154-.025-3.166-.014L418 497l1-2h21l-1-128-3 3h-2l-.875 1.875C432 374 432 374 430 376l-5.625.625-3.039.227L419 377c2.568-1.712 4.892-2.87 7.688-4.125 4.856-2.371 8.18-5.342 11.816-9.301L440 362z" fill="#cf8057"/><path d="M260 248c2.5 1.5 2.5 1.5 4 4 .791 4.021.622 6.964-1.5 10.5-3.536 2.122-6.479 2.291-10.5 1.5-2.5-1.5-2.5-1.5-4-4-.791-4.021-.622-6.964 1.5-10.5 3.536-2.122 6.479-2.291 10.5-1.5z" fill="#629fef"/><path d="M267 161l2 1-1.468 1.483c-2.13 3.499-2.011 6.801-2.044 10.782l-.054 2.404-.121 7.58-.104 5.148L265 202l-2 1-.22-15.533-.082-5.281-.089-7.603-.063-2.374c-.002-3.89.294-5.969 2.478-9.244L267 161z" fill="#132442"/><path d="M251 156l2 3-1 1c-.826 5.324-1.128 10.464-1.133 15.859l-.003 2.157.005 4.467-.006 6.826.004 4.363.003 3.972c.103 2.678.322 4.824 1.129 7.356-3-2-3-2-3.374-3.846l.002-2.265-.019-2.569.028-2.781-.002-2.855.029-5.987.014-9.158.021-5.812-.003-2.769.029-2.588.014-2.27c.296-2.384 1.08-4.025 2.261-6.1z" fill="#699fe0"/><path d="M440 362h1v6h-3c-2.629.956-3.738 1.534-5.125 4l-.875 2c-2.589 2.589-4.027 2.374-7.625 2.625l-3.039.227L419 377c2.568-1.712 4.892-2.87 7.688-4.125 4.856-2.371 8.18-5.342 11.816-9.301L440 362z" fill="#cf7d51"/><path d="M244 29c2.614-.341 2.614-.341 5.883-.293l3.535.029 3.707.076 3.73.041L270 29v2l2 1-3-.5c-4.37-.548-8.727-.613-13.125-.625l-2.062-.014c-4.041.012-7.849.361-11.812 1.139l2-3z" fill="#6394d4"/><path d="M292 42c4.694 1.242 6.775 3.77 9.668 7.441C302.936 51.13 302.936 51.13 305 52c.625 3.063.625 3.063 1 6l-1.687-2.125C300.4 51.011 296.476 46.348 292 42z" fill="#6293d4"/><path d="M306 118c1 4 1 4-.215 6.141l-1.723 2.109-1.715 2.141L301 130l-3-1 8-11z" fill="#6297da"/><path d="M196 45c.582 1.914.582 1.914 1 4l-3 3-1 3.125L192 58l-3 1c1.46-5.31 3.983-9.463 7-14z" fill="#6194d7"/><path d="M253 16v1c-6.765 1.612-13.05 2.266-20 2v-1c6.817-1.788 12.965-2.237 20-2z" fill="#669add"/><path d="M229 16l9 1v1l-1.977.586L222 23v-2c2.647-1.461 3.894-2 7-2v-3z" fill="#071025"/><path d="M441 362v6h-3l-2 2-3-1 3.438-3.5 1.934-1.969C440 362 440 362 441 362z" fill="#c17850"/><path d="M251 156l2 3-1 1-.621 6.188L251 168l-2 1-.125-4.25-.07-2.391c.212-2.567.909-4.151 2.195-6.359z" fill="#6393d2"/><path d="M298 130c-.187 1.813-.187 1.813-1 4-2.375 1.813-2.375 1.813-5 3l-3-1 3.375-3 1.898-1.687C296 130 296 130 298 130z" fill="#5f92d3"/><path d="M70 434l2 4-9 3v-2l6-4 1-1z" fill="#c68969"/><path d="M71 362l6 5-4 2c-2-3-2-3-2-7z" fill="#c88c70"/><path d="M228 21v2c-3.418 2.539-5.758 3.364-10 3 6.364-5 6.364-5 10-5z" fill="#679add"/></svg>